<svg width="504" height="136" viewBox="0 0 504 136" fill="none" xmlns="http://www.w3.org/2000/svg">
<path d="M234.472 61.4826C233.766 60.1892 232.796 59.2045 231.561 58.5284C230.327 57.8523 228.887 57.5142 227.24 57.5142C225.418 57.5142 223.801 57.9258 222.39 58.7489C220.979 59.5719 219.877 60.7477 219.083 62.2763C218.289 63.8048 217.893 65.5686 217.893 67.5674C217.893 69.6251 218.289 71.4182 219.083 72.9468C219.906 74.4754 221.038 75.6512 222.478 76.4742C223.919 77.2973 225.594 77.7088 227.505 77.7088C229.857 77.7088 231.782 77.0915 233.281 75.8569C234.78 74.5929 235.765 72.8439 236.235 70.6099H225.653V65.8919H242.32V71.2713C241.909 73.4171 241.027 75.4013 239.675 77.2238C238.322 79.0463 236.573 80.5161 234.428 81.6331C232.311 82.7207 229.93 83.2646 227.284 83.2646C224.316 83.2646 221.626 82.6032 219.215 81.2804C216.834 79.9282 214.953 78.0616 213.572 75.6806C212.219 73.2995 211.543 70.5952 211.543 67.5674C211.543 64.5397 212.219 61.8354 213.572 59.4543C214.953 57.0439 216.834 55.1773 219.215 53.8545C221.626 52.5023 224.301 51.8262 227.24 51.8262C230.709 51.8262 233.722 52.6787 236.279 54.3836C238.837 56.0592 240.601 58.4255 241.571 61.4826H234.472ZM245.3 70.6981C245.3 68.2288 245.785 66.0389 246.755 64.1282C247.754 62.2175 249.092 60.7477 250.767 59.7189C252.472 58.6901 254.368 58.1756 256.455 58.1756C258.278 58.1756 259.865 58.5431 261.217 59.278C262.599 60.0128 263.701 60.9388 264.524 62.0558V58.5725H270.742V83H264.524V79.4285C263.731 80.5749 262.628 81.5302 261.217 82.2945C259.836 83.0294 258.234 83.3968 256.411 83.3968C254.354 83.3968 252.472 82.8677 250.767 81.8095C249.092 80.7513 247.754 79.2668 246.755 77.3561C245.785 75.416 245.3 73.1967 245.3 70.6981ZM264.524 70.7862C264.524 69.2871 264.23 68.0084 263.643 66.9501C263.055 65.8625 262.261 65.0395 261.262 64.4809C260.262 63.893 259.189 63.5991 258.043 63.5991C256.896 63.5991 255.838 63.8783 254.868 64.4368C253.898 64.9954 253.104 65.8184 252.487 66.9061C251.899 67.9643 251.605 69.2283 251.605 70.6981C251.605 72.1678 251.899 73.4612 252.487 74.5782C253.104 75.6659 253.898 76.5036 254.868 77.0915C255.868 77.6794 256.926 77.9734 258.043 77.9734C259.189 77.9734 260.262 77.6941 261.262 77.1356C262.261 76.5477 263.055 75.7247 263.643 74.6664C264.23 73.5788 264.524 72.2854 264.524 70.7862ZM307.107 58.2197C310.105 58.2197 312.515 59.1457 314.338 60.9976C316.19 62.8201 317.116 65.3775 317.116 68.6698V83H310.943V69.5075C310.943 67.5968 310.458 66.1418 309.488 65.1423C308.518 64.1135 307.195 63.5991 305.519 63.5991C303.844 63.5991 302.506 64.1135 301.507 65.1423C300.537 66.1418 300.052 67.5968 300.052 69.5075V83H293.879V69.5075C293.879 67.5968 293.394 66.1418 292.424 65.1423C291.454 64.1135 290.131 63.5991 288.455 63.5991C286.75 63.5991 285.398 64.1135 284.399 65.1423C283.429 66.1418 282.944 67.5968 282.944 69.5075V83H276.771V58.5725H282.944V61.5267C283.737 60.4979 284.751 59.6895 285.986 59.1016C287.25 58.5137 288.632 58.2197 290.131 58.2197C292.041 58.2197 293.746 58.6313 295.246 59.4543C296.745 60.248 297.906 61.3944 298.729 62.8936C299.523 61.4826 300.669 60.3509 302.168 59.4984C303.697 58.646 305.343 58.2197 307.107 58.2197ZM345.681 70.2571C345.681 71.139 345.623 71.9327 345.505 72.6381H327.647C327.794 74.4019 328.412 75.7834 329.499 76.7829C330.587 77.7823 331.924 78.282 333.512 78.282C335.805 78.282 337.436 77.2973 338.406 75.3278H345.064C344.359 77.6794 343.006 79.6195 341.008 81.1481C339.009 82.6473 336.554 83.3968 333.644 83.3968C331.292 83.3968 329.176 82.8824 327.295 81.8536C325.443 80.7953 323.988 79.3109 322.929 77.4002C321.901 75.4895 321.386 73.2848 321.386 70.7862C321.386 68.2582 321.901 66.0389 322.929 64.1282C323.958 62.2175 325.399 60.7477 327.251 59.7189C329.102 58.6901 331.234 58.1756 333.644 58.1756C335.966 58.1756 338.039 58.6754 339.861 59.6748C341.713 60.6742 343.139 62.0999 344.138 63.9518C345.167 65.7743 345.681 67.8761 345.681 70.2571ZM339.288 68.4934C339.259 66.9061 338.685 65.6421 337.568 64.7014C336.451 63.7314 335.084 63.2463 333.468 63.2463C331.939 63.2463 330.646 63.7167 329.587 64.6573C328.559 65.5686 327.927 66.8473 327.691 68.4934H339.288ZM371.616 61.4826C370.911 60.1892 369.941 59.2045 368.706 58.5284C367.472 57.8523 366.031 57.5142 364.385 57.5142C362.563 57.5142 360.946 57.9258 359.535 58.7489C358.124 59.5719 357.022 60.7477 356.228 62.2763C355.434 63.8048 355.037 65.5686 355.037 67.5674C355.037 69.6251 355.434 71.4182 356.228 72.9468C357.051 74.4754 358.183 75.6512 359.623 76.4742C361.063 77.2973 362.739 77.7088 364.65 77.7088C367.001 77.7088 368.927 77.0915 370.426 75.8569C371.925 74.5929 372.91 72.8439 373.38 70.6099H362.798V65.8919H379.465V71.2713C379.053 73.4171 378.172 75.4013 376.819 77.2238C375.467 79.0463 373.718 80.5161 371.572 81.6331C369.456 82.7207 367.075 83.2646 364.429 83.2646C361.46 83.2646 358.771 82.6032 356.36 81.2804C353.979 79.9282 352.098 78.0616 350.716 75.6806C349.364 73.2995 348.688 70.5952 348.688 67.5674C348.688 64.5397 349.364 61.8354 350.716 59.4543C352.098 57.0439 353.979 55.1773 356.36 53.8545C358.771 52.5023 361.446 51.8262 364.385 51.8262C367.854 51.8262 370.867 52.6787 373.424 54.3836C375.982 56.0592 377.745 58.4255 378.715 61.4826H371.616ZM382.445 70.6981C382.445 68.2288 382.93 66.0389 383.9 64.1282C384.899 62.2175 386.237 60.7477 387.912 59.7189C389.617 58.6901 391.513 58.1756 393.6 58.1756C395.423 58.1756 397.01 58.5431 398.362 59.278C399.744 60.0128 400.846 60.9388 401.669 62.0558V58.5725H407.886V83H401.669V79.4285C400.875 80.5749 399.773 81.5302 398.362 82.2945C396.981 83.0294 395.379 83.3968 393.556 83.3968C391.498 83.3968 389.617 82.8677 387.912 81.8095C386.237 80.7513 384.899 79.2668 383.9 77.3561C382.93 75.416 382.445 73.1967 382.445 70.6981ZM401.669 70.7862C401.669 69.2871 401.375 68.0084 400.787 66.9501C400.199 65.8625 399.406 65.0395 398.406 64.4809C397.407 63.893 396.334 63.5991 395.187 63.5991C394.041 63.5991 392.983 63.8783 392.013 64.4368C391.043 64.9954 390.249 65.8184 389.632 66.9061C389.044 67.9643 388.75 69.2283 388.75 70.6981C388.75 72.1678 389.044 73.4612 389.632 74.5782C390.249 75.6659 391.043 76.5036 392.013 77.0915C393.012 77.6794 394.07 77.9734 395.187 77.9734C396.334 77.9734 397.407 77.6941 398.406 77.1356C399.406 76.5477 400.199 75.7247 400.787 74.6664C401.375 73.5788 401.669 72.2854 401.669 70.7862ZM420.088 50.3712V83H413.915V50.3712H420.088ZM424.6 70.6981C424.6 68.2288 425.085 66.0389 426.055 64.1282C427.054 62.2175 428.392 60.7477 430.067 59.7189C431.772 58.6901 433.668 58.1756 435.755 58.1756C437.578 58.1756 439.165 58.5431 440.518 59.278C441.899 60.0128 443.001 60.9388 443.824 62.0558V58.5725H450.042V83H443.824V79.4285C443.031 80.5749 441.928 81.5302 440.518 82.2945C439.136 83.0294 437.534 83.3968 435.711 83.3968C433.654 83.3968 431.772 82.8677 430.067 81.8095C428.392 80.7513 427.054 79.2668 426.055 77.3561C425.085 75.416 424.6 73.1967 424.6 70.6981ZM443.824 70.7862C443.824 69.2871 443.531 68.0084 442.943 66.9501C442.355 65.8625 441.561 65.0395 440.562 64.4809C439.562 63.893 438.489 63.5991 437.343 63.5991C436.196 63.5991 435.138 63.8783 434.168 64.4368C433.198 64.9954 432.404 65.8184 431.787 66.9061C431.199 67.9643 430.905 69.2283 430.905 70.6981C430.905 72.1678 431.199 73.4612 431.787 74.5782C432.404 75.6659 433.198 76.5036 434.168 77.0915C435.168 77.6794 436.226 77.9734 437.343 77.9734C438.489 77.9734 439.562 77.6941 440.562 77.1356C441.561 76.5477 442.355 75.7247 442.943 74.6664C443.531 73.5788 443.824 72.2854 443.824 70.7862ZM469.563 83L464.536 75.416L460.083 83H453.469L461.45 70.7421L453.381 58.5725H460.348L465.33 66.1124L469.828 58.5725H476.442L468.417 70.7421L476.53 83H469.563ZM503.252 58.5725L488.128 94.5524H481.558L486.849 82.3827L477.061 58.5725H483.983L490.289 75.6365L496.682 58.5725H503.252Z" fill="url(#paint0_linear_985_5)"/>
<path d="M191.172 59.5714V100.115C191.172 101.27 190.555 102.338 189.555 102.915L133.619 135.172C132.62 135.748 131.389 135.748 130.389 135.172L95.8236 115.23L72.8906 101.983V79.3274H92.5916C94.3766 79.3274 95.8236 80.7744 95.8236 82.5594V86.8664C95.8236 88.0224 96.4406 89.0894 97.4416 89.6664L118.812 101.981L130.388 108.672C131.388 109.25 132.62 109.25 133.621 108.673L166.568 89.6654C167.568 89.0884 168.185 88.0204 168.185 86.8654V82.5574C168.185 80.7724 166.738 79.3254 164.953 79.3254H135.236C133.451 79.3254 132.004 77.8784 132.004 76.0934V69.6704C132.004 68.5154 132.62 67.4484 133.621 66.8714L151.126 56.7704C151.617 56.4874 152.174 56.3374 152.741 56.3374H187.941C189.725 56.3394 191.172 57.7864 191.172 59.5714Z" fill="url(#paint1_linear_985_5)"/>
<path d="M95.8119 46.9233V56.3303H79.5029L72.8789 60.1703V33.6753L77.7219 36.4583L95.8119 46.9233Z" fill="url(#paint2_linear_985_5)"/>
<path d="M186.305 36.4742L169.79 45.9912C168.79 46.5682 167.557 46.5673 166.558 45.9883L150.083 36.4583L133.607 26.9792C132.607 26.4042 131.376 26.4053 130.378 26.9823L118.8 33.6752L95.8125 20.4272L130.374 0.43425C131.375 -0.14475 132.61 -0.14475 133.611 0.43425L161.549 16.5872L186.307 30.8743C188.463 32.1183 188.462 35.2312 186.305 36.4742Z" fill="url(#paint3_linear_985_5)"/>
<path d="M23.4515 48.7892V86.8572C23.4515 88.0122 24.0675 89.0792 25.0685 89.6572L58.0185 108.667C59.0175 109.243 60.2465 109.244 61.2465 108.669L72.8795 101.972L95.8125 115.22L61.2475 135.161C60.2475 135.738 59.0165 135.738 58.0165 135.161L2.13553 102.906C1.13553 102.329 0.519531 101.262 0.519531 100.107V35.5412C0.519531 34.3872 1.13453 33.3202 2.13353 32.7432L58.0145 0.435227C59.0155 -0.143773 60.2495 -0.143773 61.2495 0.435227L89.1885 16.5882L95.8125 20.4292L118.801 33.6772L95.8125 46.9242L77.7225 36.4592L72.8795 33.6762L61.2465 26.9792C60.2475 26.4042 59.0175 26.4042 58.0185 26.9812L25.0685 45.9912C24.0685 46.5672 23.4515 47.6342 23.4515 48.7892Z" fill="url(#paint4_linear_985_5)"/>
<path d="M118.802 59.5621V96.3791C118.802 97.5371 118.189 98.4501 117.378 99.0581C116.689 99.5741 115.796 100.243 115.796 100.243L97.4308 89.6561C96.4298 89.0791 95.8128 88.0111 95.8128 86.8561V82.5491C95.8128 80.7641 94.3658 79.3171 92.5808 79.3171H62.8648C61.0798 79.3171 59.6328 77.8701 59.6328 76.0851V69.6641C59.6328 68.5081 60.2508 67.4401 61.2528 66.8631L72.8808 60.1701L78.7528 56.7651C79.2458 56.4791 79.8048 56.3291 80.3738 56.3291H115.57C117.355 56.3301 118.802 57.7771 118.802 59.5621Z" fill="url(#paint5_linear_985_5)"/>
<path d="M95.8126 82.5501L95.8186 82.5121C95.7926 80.7501 94.3596 79.3281 92.5916 79.3281H72.8906V82.5511H95.8126V82.5501Z" fill="#BCBEC0"/>
<path d="M68.8008 104.319L91.1578 117.904L95.8108 115.22L72.8778 101.972L68.8008 104.319Z" fill="#BCBEC0"/>
<path d="M95.8119 48.6733L72.8789 36.7543V33.6753L95.8119 46.9233V48.6733Z" fill="#BCBEC0"/>
<defs>
<linearGradient id="paint0_linear_985_5" x1="210" y1="68" x2="504" y2="68" gradientUnits="userSpaceOnUse">
<stop stop-color="#38BDF8"/>
<stop offset="1" stop-color="#1C64F2"/>
</linearGradient>
<linearGradient id="paint1_linear_985_5" x1="173.841" y1="26.4795" x2="123.204" y2="103.657" gradientUnits="userSpaceOnUse">
<stop stop-color="#38BDF8"/>
<stop offset="1" stop-color="#1C64F2"/>
</linearGradient>
<linearGradient id="paint2_linear_985_5" x1="119.773" y1="-8.9944" x2="69.1364" y2="68.1834" gradientUnits="userSpaceOnUse">
<stop stop-color="#38BDF8"/>
<stop offset="1" stop-color="#1C64F2"/>
</linearGradient>
<linearGradient id="paint3_linear_985_5" x1="151.975" y1="12.1329" x2="101.338" y2="89.3109" gradientUnits="userSpaceOnUse">
<stop stop-color="#38BDF8"/>
<stop offset="1" stop-color="#1C64F2"/>
</linearGradient>
<linearGradient id="paint4_linear_985_5" x1="19.9396" y1="27.8396" x2="88.5191" y2="96.4192" gradientUnits="userSpaceOnUse">
<stop stop-color="#9368E8"/>
<stop offset="1" stop-color="#222B7F"/>
</linearGradient>
<linearGradient id="paint5_linear_985_5" x1="34.5997" y1="13.2056" x2="103.158" y2="81.7639" gradientUnits="userSpaceOnUse">
<stop stop-color="#9368E8"/>
<stop offset="1" stop-color="#222B7F"/>
</linearGradient>
</defs>
</svg>
