<svg width="192" height="136" viewBox="0 0 192 136" fill="none" xmlns="http://www.w3.org/2000/svg">
<path d="M191.172 59.5714V100.115C191.172 101.27 190.555 102.338 189.555 102.915L133.619 135.172C132.62 135.748 131.389 135.748 130.389 135.172L95.8236 115.23L72.8906 101.983V79.3274H92.5916C94.3766 79.3274 95.8236 80.7744 95.8236 82.5594V86.8664C95.8236 88.0224 96.4406 89.0894 97.4416 89.6664L118.812 101.981L130.388 108.672C131.388 109.25 132.62 109.25 133.621 108.673L166.568 89.6654C167.568 89.0884 168.185 88.0204 168.185 86.8654V82.5574C168.185 80.7724 166.738 79.3254 164.953 79.3254H135.236C133.451 79.3254 132.004 77.8784 132.004 76.0934V69.6704C132.004 68.5154 132.62 67.4484 133.621 66.8714L151.126 56.7704C151.617 56.4874 152.174 56.3374 152.741 56.3374H187.941C189.725 56.3394 191.172 57.7864 191.172 59.5714Z" fill="url(#paint0_linear_985_9)"/>
<path d="M95.8119 46.9233V56.3303H79.5029L72.8789 60.1703V33.6753L77.7219 36.4583L95.8119 46.9233Z" fill="url(#paint1_linear_985_9)"/>
<path d="M186.305 36.4742L169.79 45.9912C168.79 46.5682 167.557 46.5673 166.558 45.9883L150.083 36.4583L133.607 26.9792C132.607 26.4042 131.376 26.4053 130.378 26.9823L118.8 33.6752L95.8125 20.4272L130.374 0.43425C131.375 -0.14475 132.61 -0.14475 133.611 0.43425L161.549 16.5872L186.307 30.8743C188.463 32.1183 188.462 35.2312 186.305 36.4742Z" fill="url(#paint2_linear_985_9)"/>
<path d="M23.4515 48.7892V86.8572C23.4515 88.0122 24.0675 89.0792 25.0685 89.6572L58.0185 108.667C59.0175 109.243 60.2465 109.244 61.2465 108.669L72.8795 101.972L95.8125 115.22L61.2475 135.161C60.2475 135.738 59.0165 135.738 58.0165 135.161L2.13553 102.906C1.13553 102.329 0.519531 101.262 0.519531 100.107V35.5412C0.519531 34.3872 1.13453 33.3202 2.13353 32.7432L58.0145 0.435227C59.0155 -0.143773 60.2495 -0.143773 61.2495 0.435227L89.1885 16.5882L95.8125 20.4292L118.801 33.6772L95.8125 46.9242L77.7225 36.4592L72.8795 33.6762L61.2465 26.9792C60.2475 26.4042 59.0175 26.4042 58.0185 26.9812L25.0685 45.9912C24.0685 46.5672 23.4515 47.6342 23.4515 48.7892Z" fill="url(#paint3_linear_985_9)"/>
<path d="M118.802 59.5621V96.3791C118.802 97.5371 118.189 98.4501 117.378 99.0581C116.689 99.5741 115.796 100.243 115.796 100.243L97.4308 89.6561C96.4298 89.0791 95.8128 88.0111 95.8128 86.8561V82.5491C95.8128 80.7641 94.3658 79.3171 92.5808 79.3171H62.8648C61.0798 79.3171 59.6328 77.8701 59.6328 76.0851V69.6641C59.6328 68.5081 60.2508 67.4401 61.2528 66.8631L72.8808 60.1701L78.7528 56.7651C79.2458 56.4791 79.8048 56.3291 80.3738 56.3291H115.57C117.355 56.3301 118.802 57.7771 118.802 59.5621Z" fill="url(#paint4_linear_985_9)"/>
<path d="M95.8126 82.5501L95.8186 82.5121C95.7926 80.7501 94.3596 79.3281 92.5916 79.3281H72.8906V82.5511H95.8126V82.5501Z" fill="#BCBEC0"/>
<path d="M68.8008 104.319L91.1578 117.904L95.8108 115.22L72.8778 101.972L68.8008 104.319Z" fill="#BCBEC0"/>
<path d="M95.8119 48.6733L72.8789 36.7543V33.6753L95.8119 46.9233V48.6733Z" fill="#BCBEC0"/>
<defs>
<linearGradient id="paint0_linear_985_9" x1="173.841" y1="26.4795" x2="123.204" y2="103.657" gradientUnits="userSpaceOnUse">
<stop stop-color="#38BDF8"/>
<stop offset="1" stop-color="#1C64F2"/>
</linearGradient>
<linearGradient id="paint1_linear_985_9" x1="119.773" y1="-8.9944" x2="69.1364" y2="68.1834" gradientUnits="userSpaceOnUse">
<stop stop-color="#38BDF8"/>
<stop offset="1" stop-color="#1C64F2"/>
</linearGradient>
<linearGradient id="paint2_linear_985_9" x1="151.975" y1="12.1329" x2="101.338" y2="89.3109" gradientUnits="userSpaceOnUse">
<stop stop-color="#38BDF8"/>
<stop offset="1" stop-color="#1C64F2"/>
</linearGradient>
<linearGradient id="paint3_linear_985_9" x1="19.9396" y1="27.8396" x2="88.5191" y2="96.4192" gradientUnits="userSpaceOnUse">
<stop stop-color="#9368E8"/>
<stop offset="1" stop-color="#222B7F"/>
</linearGradient>
<linearGradient id="paint4_linear_985_9" x1="34.5997" y1="13.2056" x2="103.158" y2="81.7639" gradientUnits="userSpaceOnUse">
<stop stop-color="#9368E8"/>
<stop offset="1" stop-color="#222B7F"/>
</linearGradient>
</defs>
</svg>
